{"asset":{"generator":"3D Builder","version":"2.0"},"scene":0,"scenes":[{"nodes":[0]}],"nodes":[{"mesh":0,"matrix":[12.500622749328613,0,0,0,0,-1.4901164604452788E-6,-12.500000953674316,0,0,0.55325281620025635,-6.5952882266628876E-8,0,-0.24999995529651642,0.014925888739526272,0.787475049495697,1]}],"meshes":[{"primitives":[{"attributes":{"POSITION":0},"mode":4,"indices":1,"material":0}]}],"materials":[{"name":"Green","pbrMetallicRoughness":{"baseColorFactor":[0.015208514407277107,0.49693304300308228,0.072271861135959625,1],"metallicFactor":0,"roughnessFactor":1},"alphaMode":"OPAQUE"}],"accessors":[{"bufferView":0,"byteOffset":0,"count":8,"componentType":5126,"type":"VEC3","min":[-1.9073487234066988E-9,0.042998012155294418,0],"max":[0.039998006075620651,0.082998007535934448,0.039997987449169159]},{"bufferView":1,"byteOffset":0,"count":36,"componentType":5125,"type":"SCALAR"}],"bufferViews":[{"buffer":0,"byteOffset":0,"byteLength":96,"byteStride":12,"target":34962},{"buffer":0,"byteOffset":96,"byteLength":144,"target":34963}],"buffers":[{"byteLength":240,"uri":"test.bin"}]}