{"asset":{"generator":"3D Builder","version":"2.0"},"scene":0,"scenes":[{"nodes":[0]}],"nodes":[{"children":[1,2,3]},{"mesh":0,"matrix":[0.20000000298023224,0,0,0,0,-2.3841858265427618E-8,-0.19999997317790985,0,0,0.19999997317790985,-2.3841858265427618E-8,0,-2.4223327788064353E-9,-0.0029851580038666725,1.7312187239326704E-8,1]},{"mesh":1,"matrix":[0.3872734010219574,0,0,0,0,-4.6166586997742343E-8,-0.38727334141731262,0,0,0.18835343420505524,-2.2453482628748134E-8,0,-0.033327881246805191,0.0013146711280569434,0.031330026686191559,1]},{"mesh":2,"matrix":[0.3872734010219574,0,0,0,0,-4.6166586997742343E-8,-0.38727334141731262,0,0,0.18835343420505524,-2.2453482628748134E-8,0,-0.033327881246805191,0.0013146711280569434,0.031330026686191559,1]}],"meshes":[{"primitives":[{"attributes":{"POSITION":0},"mode":4,"indices":1,"material":0}]},{"primitives":[{"attributes":{"POSITION":2,"TEXCOORD_0":3},"mode":4,"indices":4,"material":1}]},{"primitives":[{"attributes":{"POSITION":5,"TEXCOORD_0":6},"mode":4,"indices":7,"material":1}]}],"materials":[{"name":"Green","pbrMetallicRoughness":{"baseColorFactor":[0.015208514407277107,0.49693304300308228,0.072271861135959625,1],"metallicFactor":0,"roughnessFactor":1},"alphaMode":"OPAQUE"},{"pbrMetallicRoughness":{"baseColorFactor":[1,1,1,1],"metallicFactor":0,"roughnessFactor":1,"baseColorTexture":{"index":0,"texCoord":0}},"alphaMode":"OPAQUE"}],"accessors":[{"bufferView":0,"byteOffset":0,"count":8,"componentType":5126,"type":"VEC3","min":[-0.24999998509883881,-0.24999988079071045,0.014925792813301086],"max":[0.25,0.25000005960464478,0.037054784595966339]},{"bufferView":1,"byteOffset":0,"count":36,"componentType":5125,"type":"SCALAR"},{"bufferView":2,"byteOffset":0,"count":302,"componentType":5126,"type":"VEC3","min":[0.0033019997645169497,0.0048259962350130081,0],"max":[0.18364201486110687,0.16179800033569336,0.01950719952583313]},{"bufferView":3,"byteOffset":0,"count":302,"componentType":5126,"type":"VEC2"},{"bufferView":4,"byteOffset":0,"count":1836,"componentType":5125,"type":"SCALAR"},{"bufferView":5,"byteOffset":0,"count":50,"componentType":5126,"type":"VEC3","min":[0,0,0],"max":[0.039369996637105942,0.052069991827011108,0.01950719952583313]},{"bufferView":6,"byteOffset":0,"count":50,"componentType":5126,"type":"VEC2"},{"bufferView":7,"byteOffset":0,"count":288,"componentType":5125,"type":"SCALAR"}],"textures":[{"source":0,"sampler":0}],"images":[{"uri":"paper.png"}],"samplers":[{"magFilter":9729,"wrapS":10497,"wrapT":10497}],"bufferViews":[{"buffer":0,"byteOffset":0,"byteLength":96,"byteStride":12,"target":34962},{"buffer":0,"byteOffset":96,"byteLength":144,"target":34963},{"buffer":0,"byteOffset":240,"byteLength":3624,"byteStride":12,"target":34962},{"buffer":0,"byteOffset":3864,"byteLength":2416,"byteStride":8,"target":34962},{"buffer":0,"byteOffset":6280,"byteLength":7344,"target":34963},{"buffer":0,"byteOffset":13624,"byteLength":600,"byteStride":12,"target":34962},{"buffer":0,"byteOffset":14224,"byteLength":400,"byteStride":8,"target":34962},{"buffer":0,"byteOffset":14624,"byteLength":1152,"target":34963}],"buffers":[{"byteLength":15776,"uri":"test01.bin"}]}